<svg width="327" height="172" viewBox="0 0 327 172" fill="none" xmlns="http://www.w3.org/2000/svg">
<path d="M22.0832 91.5453C22.0832 91.5453 21.1455 70.4944 7.40258 54.7992C-6.34035 39.1041 3.24532 28.0199 19.4055 25.0802C35.5657 22.1405 43.7239 58.4537 45.0055 58.1014C46.2871 57.749 33.9611 5.59977 55.1434 10.1502C76.6799 14.7712 75.2004 25.7346 75.7109 29.4092C77.3988 41.5606 53.9973 91.5453 53.9973 91.5453H22.0832Z" fill="white"/>
<path d="M23.0209 107.674C23.7503 109.345 14.1854 135.188 3.82874 143.252C-7.17394 151.829 7.52756 164.665 22.7604 162.41C37.9933 160.155 41.0461 139.013 40.0146 136.527C38.9831 134.04 52.3822 170.826 70.3137 171.914C88.2452 173.001 85.7758 163.608 84.5255 155.544C83.2752 147.48 69.9594 131.03 64.3018 124.385C58.6442 117.741 56.3624 107.684 56.3624 107.684H23.0209V107.674Z" fill="white"/>
<path d="M62.0305 107.673C62.0305 107.673 70.3762 118.113 76.336 131.352C82.2958 144.591 89.7768 153.43 89.7768 153.43C89.7768 153.43 96.7993 164.746 112.084 161.484C127.38 158.222 105.51 133.486 105.854 133.879C106.197 134.272 94.6426 119.976 96.0179 118.566C97.3932 117.157 101.061 119.06 103.676 123.318C106.291 127.577 115.71 145.94 119.826 149.725C123.941 153.51 127.119 155.916 129.036 155.916C130.953 155.916 136.069 158.745 143.613 147.822C151.156 136.899 135.392 121.214 129.495 118.083C123.598 114.952 120.086 107.663 120.086 107.663H62.0409L62.0305 107.673Z" fill="white"/>
<path d="M119.815 90.4178C118.815 90.7802 117.013 82.8169 117.325 68.9138C117.638 55.0107 123.389 53.5308 130.443 29.832C140.675 3.95878 167.254 15.6169 173.631 19.7948C180.007 23.9728 185.435 33.0134 181.83 35.1074C178.225 37.2115 171.505 27.1843 162.94 26.1071C154.376 25.0299 155.23 27.3051 155.605 29.4797C155.98 31.6543 165.306 34.8054 164.41 36.396C163.513 37.9867 152.375 33.3355 148.26 36.2148C144.144 39.0941 144.832 43.0304 148.447 43.3023C152.063 43.5741 162.086 42.3156 162.211 44.3694C162.336 46.4232 149.239 45.8594 148.635 52.4737C148.031 59.088 163.378 54.1348 166.431 54.1147C169.484 54.0945 162.315 57.145 160.565 62.6216C158.814 68.0983 163.065 68.0882 167.171 67.2325C171.276 66.3768 183.122 54.8496 184.05 56.7725C184.977 58.6953 186.102 63.5579 184.05 67.9372C181.997 72.3166 178.403 71.5816 178.913 80.8739C179.424 90.1661 181.414 91.4446 188.999 95.0589C196.594 98.6731 200.637 99.7402 208.816 106.757C216.995 113.774 222.736 125.634 218.36 132.107C213.984 138.58 213.984 138.58 201.846 139.194C189.707 139.809 175.996 116.563 173.037 117.57C170.078 118.576 182.268 126.892 183.122 133.869C183.977 140.845 180.403 148.456 173.954 154.628C167.504 160.799 146.426 155.906 148.822 142.044C151.219 128.181 128.765 110.925 130.005 108.157C131.245 105.388 146.082 115.637 151.729 107.975C157.377 100.314 139.966 101.009 140.3 99.9516C140.633 98.8945 146.801 99.2972 151.542 99.2066C156.293 99.116 158.273 97.0522 157.283 91.5252C156.293 85.9982 140.81 92.7937 140.372 91.5252C139.935 90.2567 154.376 85.1626 158.814 82.837C163.253 80.5114 160.044 72.9206 152.104 74.471C144.165 76.0214 139.695 82.9276 136.747 84.025C133.788 85.1122 142.144 74.5314 138.143 70.9675C134.142 67.4037 131.36 70.0111 127.526 74.471C123.691 78.9409 120.826 90.0453 119.815 90.4077V90.4178Z" fill="white"/>
<path d="M189.707 39.1042C189.707 39.1042 186.019 26.6508 195.365 16.8452C204.711 7.03951 224.278 9.81811 223.653 21.144C223.028 32.4698 213.349 27.7784 211.431 31.2617C209.514 34.745 210.358 39.1042 210.358 39.1042H189.697H189.707Z" fill="white"/>
<path d="M235.104 39.1041C235.104 39.1041 235.958 33.5469 235.792 27.2547C235.625 20.9626 229.144 20.9827 231.905 10.9858C234.666 0.98882 256.359 1.613 256.963 16.0597C257.568 30.5065 257.078 27.7984 257.078 31.6844C257.078 35.5704 259.224 39.1041 259.224 39.1041H235.093H235.104Z" fill="white"/>
<path d="M264.278 39.1043C264.278 39.1043 267.039 26.7315 264.278 16.4526C261.516 6.17379 272.405 1.25082 280.042 0.44543C287.679 -0.359964 296.442 -1.08482 296.629 7.93559C296.817 16.956 291.138 16.352 289.357 23.077C286.825 32.6108 288.533 39.1144 288.533 39.1144H264.288L264.278 39.1043Z" fill="white"/>
<path d="M189.707 55.0208C189.707 55.0208 185.123 74.5617 189.707 84.0351C194.292 93.5186 208.775 100.838 215.005 105.64C221.236 110.442 225.362 127.526 225.841 133.889C226.32 140.252 237.209 140.755 244.273 136.013C251.337 131.282 246.94 125.1 244.273 118.204C241.605 111.308 227.446 86.1191 223.653 84.025C219.861 81.931 222.205 92.079 218.35 93.5891C214.495 95.0992 207.66 87.7097 209.587 84.025C211.515 80.3404 218.902 81.4075 220.965 78.9209C223.028 76.4342 226.518 66.3265 227.477 60.6686C228.425 55.0107 221.601 55.0107 218.652 55.0107C215.703 55.0107 212.525 58.6451 209.431 61.3935C206.336 64.1419 209.462 55.0309 209.462 55.0309L189.718 55.0107L189.707 55.0208Z" fill="white"/>
<path d="M233.041 55.0209C233.041 55.0209 229.373 75.1054 232.447 84.0352C235.521 92.965 250.045 113.946 251.608 121.405C253.171 128.865 254.88 146.594 267.581 147.057C280.282 147.52 286.471 144.349 286.148 136.013C285.825 127.677 264.611 105.267 269.977 103.083C275.343 100.898 285.95 122.795 289.273 129.701C292.597 136.607 310.789 148.406 324.073 132.792C337.348 117.167 294.754 84.2366 292.139 68.5717C289.523 52.9068 289.742 55.031 289.742 55.031H266.268C266.268 55.031 273.634 66.4877 271.842 67.8368C270.05 69.1858 262.006 55.031 262.006 55.031H233.062L233.041 55.0209Z" fill="white"/>
<path d="M119.451 28.634C116.679 3.44535 84.7756 13.9356 80.2953 28.634C75.8151 43.3325 74.669 51.5575 72.7101 59.5913C70.7409 67.6251 59.7278 91.5352 59.7278 91.5352H114.21C114.21 91.5352 106.375 78.649 107.333 69.7997C108.292 60.9504 122.233 53.8126 119.461 28.624L119.451 28.634ZM91.621 68.9641C91.173 71.8031 85.5153 76.3939 83.4732 75.7395C81.4414 75.0851 87.693 47.9735 89.7664 48.1849C91.8398 48.4064 92.069 66.115 91.6106 68.954L91.621 68.9641Z" fill="white"/>
</svg>
