<svg width="328" height="173" viewBox="0 0 328 173" fill="none" xmlns="http://www.w3.org/2000/svg">
<path d="M22.5832 92.0451C22.5832 92.0451 21.6455 70.9941 7.90258 55.299C-5.84035 39.6039 3.74532 28.5197 19.9055 25.58C36.0657 22.6403 44.2239 58.9535 45.5055 58.6011C46.7871 58.2488 34.4611 6.09953 55.6434 10.65C77.1799 15.2709 75.7004 26.2344 76.2109 29.909C77.8988 42.0603 54.4973 92.0451 54.4973 92.0451H22.5832Z" fill="black" stroke="#231F20" stroke-miterlimit="10"/>
<path d="M23.5209 108.173C24.2503 109.845 14.6854 135.688 4.32875 143.752C-6.67393 152.329 8.02757 165.165 23.2605 162.91C38.4933 160.655 41.5462 139.513 40.5147 137.027C39.4832 134.54 52.8823 171.326 70.8137 172.414C88.7452 173.501 86.2758 164.108 85.0255 156.044C83.7752 147.98 70.4595 131.53 64.8018 124.885C59.1442 118.241 56.8624 108.183 56.8624 108.183H23.5209V108.173Z" fill="black" stroke="#231F20" stroke-miterlimit="10"/>
<path d="M62.5305 108.173C62.5305 108.173 70.8762 118.613 76.836 131.852C82.7958 145.09 90.2768 153.93 90.2768 153.93C90.2768 153.93 97.2993 165.245 112.584 161.984C127.88 158.722 106.01 133.986 106.354 134.379C106.697 134.771 95.1426 120.476 96.5179 119.066C97.8932 117.657 101.561 119.559 104.176 123.818C106.791 128.076 116.21 146.439 120.326 150.225C124.441 154.01 127.619 156.416 129.536 156.416C131.454 156.416 136.569 159.245 144.113 148.322C151.656 137.399 135.892 121.714 129.995 118.583C124.098 115.452 120.586 108.163 120.586 108.163H62.5409L62.5305 108.173Z" fill="black" stroke="#231F20" stroke-miterlimit="10"/>
<path d="M120.315 90.9175C119.315 91.28 117.513 83.3166 117.825 69.4135C118.138 55.5104 123.889 54.0305 130.943 30.3318C141.175 4.45854 167.754 16.1166 174.131 20.2946C180.507 24.4726 185.935 33.5131 182.33 35.6071C178.725 37.7112 172.005 27.6841 163.44 26.6069C154.876 25.5296 155.73 27.8049 156.105 29.9794C156.48 32.154 165.806 35.3051 164.91 36.8958C164.013 38.4864 152.875 33.8353 148.76 36.7145C144.644 39.5938 145.332 43.5302 148.947 43.802C152.563 44.0738 162.586 42.8154 162.711 44.8692C162.836 46.9229 149.739 46.3591 149.135 52.9734C148.531 59.5877 163.878 54.6346 166.931 54.6144C169.984 54.5943 162.815 57.6447 161.065 63.1214C159.314 68.5981 163.565 68.588 167.671 67.7323C171.776 66.8765 183.622 55.3493 184.55 57.2722C185.477 59.1951 186.602 64.0577 184.55 68.437C182.497 72.8163 178.903 72.0814 179.413 81.3736C179.924 90.6658 181.914 91.9444 189.499 95.5586C197.094 99.1728 201.137 100.24 209.316 107.257C217.495 114.274 223.236 126.133 218.86 132.607C214.484 139.08 214.484 139.08 202.346 139.694C190.207 140.308 176.496 117.063 173.537 118.069C170.578 119.076 182.768 127.392 183.622 134.369C184.477 141.345 180.903 148.956 174.454 155.128C168.004 161.299 146.926 156.406 149.322 142.543C151.719 128.68 129.265 111.425 130.505 108.656C131.745 105.888 146.582 116.136 152.229 108.475C157.877 100.814 140.466 101.508 140.8 100.451C141.133 99.3943 147.301 99.797 152.042 99.7064C156.793 99.6158 158.773 97.552 157.783 92.0249C156.793 86.4979 141.31 93.2934 140.872 92.0249C140.435 90.7565 154.876 85.6623 159.314 83.3368C163.753 81.0112 160.544 73.4204 152.604 74.9707C144.665 76.5211 140.195 83.4274 137.247 84.5247C134.288 85.612 142.644 75.0311 138.643 71.4673C134.642 67.9034 131.86 70.5109 128.026 74.9707C124.191 79.4407 121.326 90.545 120.315 90.9075V90.9175Z" fill="black" stroke="#231F20" stroke-miterlimit="10"/>
<path d="M190.207 39.604C190.207 39.604 186.519 27.1506 195.865 17.3449C205.211 7.53926 224.778 10.3179 224.153 21.6437C223.528 32.9696 213.849 28.2781 211.931 31.7615C210.014 35.2448 210.858 39.604 210.858 39.604H190.197H190.207Z" fill="black" stroke="#231F20" stroke-miterlimit="10"/>
<path d="M235.604 39.6038C235.604 39.6038 236.458 34.0466 236.292 27.7545C236.125 21.4623 229.644 21.4825 232.405 11.4855C235.166 1.48858 256.859 2.11276 257.463 16.5595C258.068 31.0062 257.578 28.2981 257.578 32.1841C257.578 36.0702 259.724 39.6038 259.724 39.6038H235.593H235.604Z" fill="black" stroke="#231F20" stroke-miterlimit="10"/>
<path d="M264.778 39.6041C264.778 39.6041 267.539 27.2312 264.778 16.9524C262.016 6.67355 272.905 1.75058 280.542 0.945186C288.179 0.139792 296.942 -0.585064 297.129 8.43534C297.317 17.4558 291.638 16.8517 289.857 23.5767C287.325 33.1106 289.033 39.6141 289.033 39.6141H264.788L264.778 39.6041Z" fill="black" stroke="#231F20" stroke-miterlimit="10"/>
<path d="M190.207 55.5206C190.207 55.5206 185.623 75.0614 190.207 84.5349C194.792 94.0184 209.275 101.337 215.505 106.14C221.736 110.942 225.862 128.026 226.341 134.389C226.82 140.751 237.709 141.255 244.773 136.513C251.837 131.781 247.44 125.6 244.773 118.704C242.105 111.808 227.946 86.6188 224.153 84.5248C220.361 82.4308 222.705 92.5787 218.85 94.0889C214.995 95.599 208.16 88.2095 210.087 84.5248C212.015 80.8401 219.402 81.9073 221.465 79.4206C223.528 76.934 227.018 66.8263 227.977 61.1684C228.925 55.5105 222.101 55.5105 219.152 55.5105C216.203 55.5105 213.025 59.1448 209.931 61.8932C206.836 64.6417 209.962 55.5306 209.962 55.5306L190.218 55.5105L190.207 55.5206Z" fill="black" stroke="#231F20" stroke-miterlimit="10"/>
<path d="M233.541 55.5207C233.541 55.5207 229.873 75.6052 232.947 84.535C236.021 93.4648 250.545 114.445 252.108 121.905C253.671 129.365 255.38 147.094 268.081 147.557C280.782 148.02 286.971 144.849 286.648 136.513C286.325 128.177 265.111 105.767 270.477 103.583C275.843 101.398 286.45 123.295 289.773 130.201C293.097 137.107 311.289 148.906 324.573 133.291C337.848 117.667 295.254 84.7363 292.639 69.0714C290.023 53.4065 290.242 55.5308 290.242 55.5308H266.768C266.768 55.5308 274.134 66.9875 272.342 68.3365C270.55 69.6856 262.506 55.5308 262.506 55.5308H233.562L233.541 55.5207Z" fill="black" stroke="#231F20" stroke-miterlimit="10"/>
<path d="M119.951 29.1338C117.179 3.9451 85.2756 14.4354 80.7953 29.1338C76.3151 43.8322 75.169 52.0573 73.2102 60.0911C71.2409 68.1249 60.2278 92.035 60.2278 92.035H114.71C114.71 92.035 106.875 79.1487 107.833 70.2995C108.792 61.4502 122.733 54.3124 119.961 29.1237L119.951 29.1338ZM92.121 69.4639C91.673 72.3029 86.0153 76.8936 83.9732 76.2392C81.9414 75.5849 88.193 48.4733 90.2664 48.6847C92.3398 48.9062 92.569 66.6148 92.1106 69.4538L92.121 69.4639Z" fill="black" stroke="#231F20" stroke-miterlimit="10"/>
</svg>
