<svg width="1404" height="908" viewBox="0 0 1404 908" fill="none" xmlns="http://www.w3.org/2000/svg">
<path d="M1403.17 907.716H0V0H1403.17V907.716ZM210.6 587.251H210.715C210.724 587.33 210.732 587.422 210.735 587.528C210.745 587.841 210.724 588.24 210.668 588.725C210.557 589.693 210.313 590.965 209.942 592.51C209.201 595.597 207.957 599.731 206.276 604.626C202.915 614.415 197.811 627.218 191.486 640.727C185.162 654.235 177.621 668.441 169.388 681.038C161.151 693.641 152.238 704.606 143.181 711.658C133.396 719.286 129.262 727.919 129.511 736.478C129.759 745.015 134.365 753.37 141.831 760.472C156.759 774.672 183.279 784.033 210.255 780.039C237.335 776.03 253.547 755.235 262.52 734.457C267.009 724.061 269.7 713.641 271.041 705.267C271.712 701.08 272.046 697.396 272.098 694.478C272.108 693.9 272.104 693.348 272.092 692.827C273.181 695.531 274.752 699.289 276.771 703.81C281.677 714.8 289.221 730.317 298.856 746.23C308.49 762.141 320.226 778.468 333.522 791.062C346.814 803.651 361.716 812.556 377.675 813.523C409.301 815.441 423.224 808.136 428.533 796.487C431.168 790.705 431.638 783.929 431.188 776.859C430.739 769.793 429.362 762.361 428.265 755.28C427.15 748.09 423.358 739.079 418.022 729.273C412.681 719.457 405.77 708.8 398.38 698.31C383.598 677.327 366.876 656.975 356.906 645.266C346.994 633.624 340.026 618.974 335.534 607.214C333.29 601.338 331.666 596.191 330.604 592.515C330.074 590.677 329.682 589.206 329.425 588.196C329.296 587.692 329.201 587.301 329.138 587.038C329.106 586.907 329.082 586.807 329.066 586.74C329.059 586.707 329.054 586.682 329.05 586.665C329.048 586.657 329.046 586.65 329.045 586.646C329.045 586.645 329.044 586.642 329.044 586.642V586.641L328.955 586.251H211.442L210.6 584.32V587.251ZM348.214 586.321L348.177 586.356L347.85 586.673L348.134 587.028L348.135 587.03L348.154 587.055C348.168 587.072 348.19 587.099 348.218 587.134C348.274 587.204 348.357 587.31 348.467 587.449C348.686 587.729 349.011 588.145 349.433 588.692C350.276 589.787 351.504 591.403 353.044 593.488C356.124 597.659 360.451 603.708 365.433 611.212C375.398 626.222 387.982 647.052 398.465 670.338C408.977 693.689 420.83 713.158 430.055 726.79C434.667 733.606 438.624 738.964 441.428 742.619C442.83 744.446 443.944 745.848 444.708 746.794C445.09 747.267 445.385 747.626 445.584 747.867C445.684 747.988 445.759 748.079 445.811 748.14C445.833 748.167 445.851 748.188 445.864 748.203L445.866 748.205C445.879 748.225 445.898 748.255 445.923 748.294C445.973 748.372 446.048 748.486 446.146 748.633C446.344 748.927 446.64 749.356 447.035 749.896C447.825 750.974 449.012 752.499 450.604 754.29C453.787 757.873 458.594 762.529 465.096 766.822C478.108 775.416 497.89 782.548 524.961 776.771C531.77 775.319 536.568 772.659 539.71 769.077C542.854 765.493 544.298 761.032 544.488 756.063C544.867 746.159 540.268 734.131 534.074 722.594C527.87 711.037 520.019 699.891 513.801 691.727C510.691 687.643 507.987 684.303 506.098 682.025C505.153 680.887 504.412 680.013 503.926 679.446C503.683 679.163 503.503 678.956 503.394 678.83C503.373 678.806 503.354 678.785 503.338 678.767C503.335 678.763 503.333 678.759 503.331 678.757C503.322 678.744 503.311 678.729 503.3 678.715C503.255 678.656 503.172 678.549 503.058 678.402C502.827 678.108 502.453 677.634 501.96 677.008C500.973 675.754 499.502 673.882 497.718 671.581C494.149 666.979 489.33 660.663 484.625 654.15C479.918 647.635 475.333 640.934 472.23 635.559C470.677 632.868 469.508 630.531 468.877 628.726C468.561 627.821 468.389 627.078 468.36 626.505C468.332 625.924 468.454 625.605 468.615 625.439C469.697 624.332 471.251 623.844 473.181 624C475.118 624.157 477.403 624.962 479.855 626.403C484.758 629.284 490.237 634.646 494.81 642.092C499.413 649.587 509.99 669.473 521.266 689.217C526.897 699.077 532.698 708.892 537.999 717.078C543.29 725.249 548.113 731.843 551.79 735.226C559.044 741.897 565.488 747.369 570.972 751.175C573.714 753.078 576.227 754.573 578.49 755.593C580.749 756.611 582.789 757.169 584.576 757.169C585.372 757.169 586.351 757.317 587.55 757.516C588.735 757.712 590.114 757.954 591.658 758.122C594.755 758.46 598.537 758.505 602.948 757.325C611.776 754.965 623.014 747.734 636.339 728.438C649.811 708.93 642.416 685.242 629.233 665.202C616.037 645.142 596.9 628.507 586.426 622.946C576.135 617.483 567.902 608.375 562.232 600.604C559.401 596.722 557.215 593.184 555.737 590.616C554.999 589.333 554.438 588.292 554.062 587.573C553.874 587.215 553.732 586.936 553.638 586.748C553.591 586.654 553.555 586.582 553.531 586.534C553.52 586.51 553.511 586.492 553.505 586.48C553.502 586.475 553.5 586.471 553.499 586.468C553.498 586.467 553.497 586.465 553.497 586.465V586.464L553.36 586.181H348.359L348.214 586.321ZM670.707 254.613C655.275 254.255 639.388 257.22 625.089 266.02C610.785 274.822 598.111 289.438 589.066 312.31L589.058 312.329L589.052 312.351C576.639 354.054 565.376 376.199 557.066 394.062C548.743 411.956 543.372 425.575 542.819 450.161C542.268 474.672 543.581 493.959 545.477 506.968C546.424 513.469 547.518 518.42 548.605 521.676C549.147 523.298 549.697 524.533 550.245 525.331C550.518 525.729 550.814 526.052 551.139 526.251C551.478 526.459 551.868 526.54 552.262 526.397L552.592 526.278V526.183C552.825 526.017 553.04 525.782 553.233 525.526C553.53 525.135 553.842 524.614 554.169 523.992C554.824 522.747 555.571 521.032 556.401 518.983C558.059 514.891 560.087 509.364 562.408 503.429C567.07 491.508 572.944 477.874 579.633 470.075L580.891 468.62C587.122 461.449 592.521 455.906 597.942 453.434C600.811 452.125 603.671 451.685 606.662 452.318C609.663 452.954 612.841 454.679 616.323 457.78C619.669 460.76 620.478 465.24 619.871 470.371C619.265 475.499 617.256 481.163 615.111 486.36C612.984 491.516 610.696 496.272 609.617 499.439C609.345 500.239 609.141 500.959 609.035 501.575C608.932 502.179 608.91 502.744 609.059 503.199C609.136 503.436 609.262 503.655 609.454 503.827C609.648 504 609.883 504.104 610.141 504.151C610.634 504.241 611.233 504.125 611.91 503.876L611.912 503.875C614.604 502.873 617.599 500.567 620.967 497.663C624.368 494.73 628.148 491.187 632.516 487.562C641.222 480.334 652.074 472.948 665.938 470.24C679.748 467.544 689.345 472.803 693.588 479.629C695.715 483.05 696.499 486.863 695.825 490.296C695.153 493.718 693.025 496.799 689.247 498.778C681.454 502.861 664.868 509.38 650.36 515.461C643.121 518.495 636.402 521.419 631.587 523.867C629.183 525.089 627.231 526.204 625.923 527.163C625.272 527.64 624.753 528.1 624.419 528.534C624.098 528.951 623.857 529.467 624.038 529.992C624.232 530.553 624.799 530.765 625.319 530.846C625.871 530.931 626.592 530.905 627.428 530.81C629.108 530.617 631.406 530.117 634.098 529.462C639.505 528.145 646.548 526.187 653.671 524.692C660.797 523.198 667.926 522.185 673.472 522.74C676.243 523.018 678.575 523.683 680.309 524.838C682.026 525.981 683.18 527.62 683.592 529.917C685.328 539.611 684.427 546.112 681.164 550.23C677.906 554.342 672.172 556.231 663.85 556.39C659.682 556.469 655.199 556.44 650.794 556.41C646.392 556.38 642.066 556.349 638.225 556.425C634.388 556.5 631.01 556.682 628.51 557.084C627.262 557.284 626.205 557.544 625.41 557.886C624.685 558.198 624.073 558.624 623.822 559.238L623.777 559.363C623.685 559.658 623.762 559.935 623.927 560.15C624.074 560.342 624.288 560.483 624.505 560.594C624.944 560.817 625.585 561.006 626.354 561.179C627.905 561.527 630.15 561.844 632.78 562.201C638.063 562.918 644.968 563.802 651.284 565.407C654.441 566.209 657.435 567.188 659.997 568.409C662.562 569.632 664.665 571.083 666.067 572.815C667.46 574.535 668.171 576.542 667.955 578.925C667.737 581.325 666.572 584.153 664.117 587.483C659.252 594.083 652.409 596.841 644.747 597.396C637.068 597.953 628.599 596.293 620.564 594.081C616.551 592.976 612.657 591.736 609.031 590.571C605.41 589.408 602.05 588.317 599.124 587.518C596.207 586.721 593.673 586.199 591.716 586.198C589.773 586.197 588.205 586.716 587.533 588.215C587.183 588.996 587.281 589.955 587.633 590.991C587.989 592.04 588.636 593.256 589.509 594.615C591.257 597.337 593.975 600.725 597.311 604.643C603.999 612.498 613.19 622.509 622.273 633.766C631.351 645.015 640.283 657.462 646.419 670.131C652.557 682.804 655.871 695.648 653.786 707.712C651.651 720.061 654.747 730.435 660.956 738.686C667.156 746.924 676.445 753.025 686.683 756.897C696.922 760.77 708.142 762.424 718.24 761.741C728.328 761.059 737.362 758.038 743.158 752.491C765.946 730.686 778.645 703.727 775.609 678.938C774.842 672.675 771.54 666.156 767.238 659.875C762.931 653.587 757.586 647.488 752.681 642.067C747.759 636.629 743.304 631.899 740.719 628.3C739.418 626.489 738.649 625.042 738.486 623.981C738.407 623.468 738.478 623.088 738.655 622.802C738.834 622.514 739.164 622.25 739.743 622.053C740.225 621.889 740.885 621.95 741.771 622.333C742.651 622.713 743.686 623.38 744.872 624.315C747.242 626.186 750.129 629.061 753.459 632.632C756.785 636.199 760.533 640.438 764.627 645.028C768.718 649.616 773.151 654.55 777.838 659.495C787.208 669.383 797.61 679.336 808.358 686.684C819.1 694.026 830.247 698.809 841.098 698.26C851.782 697.719 859.817 697.313 866.088 696.65C872.358 695.988 876.908 695.067 880.613 693.477C888.048 690.286 891.983 684.436 899.665 673.072C907.514 661.462 906.242 645.111 899.488 628.669C892.725 612.205 880.416 595.517 865.954 583.109C837.077 558.335 822.759 554.545 796.029 541.826H796.03C782.641 535.447 774.329 531.184 769.098 524.485C763.882 517.806 761.682 508.634 760.783 492.278C759.888 475.979 762.596 468.569 766.353 463.319C768.254 460.662 770.417 458.562 772.622 456.091C774.815 453.633 776.996 450.861 778.832 446.944C786.146 431.34 782.14 414.046 778.83 407.183C778.545 406.592 778.037 406.265 777.407 406.17C776.808 406.079 776.099 406.195 775.329 406.438C773.782 406.927 771.782 407.999 769.478 409.453C764.857 412.369 758.862 416.92 752.543 421.757C746.214 426.601 739.551 431.739 733.566 435.855C730.575 437.913 727.761 439.71 725.25 441.084C722.732 442.462 720.55 443.398 718.815 443.76C715.214 444.511 711.596 445.072 708.294 445.196C704.985 445.321 702.034 445.005 699.741 444.033C697.47 443.071 695.844 441.468 695.128 438.97C694.404 436.442 694.595 432.937 696.122 428.158C699.159 418.656 706.913 411.225 712.655 406.134C714.081 404.87 715.396 403.739 716.461 402.771C717.521 401.809 718.38 400.968 718.89 400.272C719.142 399.928 719.344 399.573 719.416 399.225C719.495 398.844 719.419 398.459 719.116 398.158C718.848 397.892 718.454 397.745 718.016 397.659C717.565 397.571 716.996 397.533 716.308 397.537C714.916 397.546 712.856 397.835 710.355 398.272C707.846 398.712 704.853 399.31 701.583 399.95C695.034 401.232 687.355 402.687 680.084 403.414C672.796 404.142 665.992 404.13 661.161 402.525C658.755 401.726 656.877 400.544 655.662 398.9C654.453 397.264 653.859 395.116 654.116 392.302C654.631 386.666 657.801 382.54 662.337 379.394C666.885 376.238 672.774 374.094 678.632 372.438C681.557 371.611 684.465 370.908 687.184 370.262C689.898 369.616 692.432 369.025 694.592 368.424C696.744 367.825 698.568 367.206 699.848 366.491C701.098 365.793 702.018 364.892 701.944 363.676C701.875 362.531 701.109 361.684 700.001 361.069C698.896 360.456 697.365 360.02 695.56 359.708C691.941 359.083 687.049 358.931 681.809 358.973C676.563 359.015 670.93 359.253 665.829 359.421C660.715 359.589 656.147 359.685 652.995 359.448C649.899 359.215 647.47 358.202 645.774 356.694C644.082 355.19 643.095 353.17 642.912 350.867C642.546 346.254 645.418 340.402 652.584 335.389C656.08 332.943 661.122 332.065 666.857 332.087C672.579 332.109 678.907 333.025 684.909 334.088C690.889 335.147 696.58 336.359 700.94 336.95C703.122 337.246 705.014 337.394 706.473 337.281C707.886 337.172 709.095 336.805 709.626 335.862C710.157 334.919 709.876 333.914 709.228 332.988C708.581 332.065 707.497 331.103 706.157 330.12C703.47 328.149 699.587 325.98 695.604 323.769C691.605 321.548 687.497 319.279 684.305 317.09C682.709 315.995 681.359 314.934 680.374 313.92C679.379 312.897 678.807 311.975 678.667 311.167C678.33 309.212 677.908 307.343 677.911 305.631C677.914 303.949 678.331 302.51 679.613 301.393C680.922 300.252 683.206 299.381 687.105 299.047C690.995 298.714 696.425 298.92 703.952 299.867C718.886 301.746 732.245 311.435 743.542 319.828C749.166 324.007 754.297 327.876 758.818 330.228C763.323 332.57 767.399 333.5 770.812 331.509L770.812 331.51C774.215 329.533 775.43 325.929 775.062 321.564C774.696 317.211 772.758 312.006 769.74 306.614C763.702 295.824 753.251 284.121 741.948 276.715C730.665 269.322 701.55 255.33 670.707 254.613ZM1150.6 400.437C1150.48 400.466 1150.39 400.537 1150.34 400.593C1150.29 400.655 1150.26 400.721 1150.24 400.765H1067.11L1067.6 401.535L1067.6 401.536C1067.6 401.537 1067.6 401.54 1067.61 401.542C1067.61 401.547 1067.61 401.554 1067.62 401.563C1067.63 401.583 1067.65 401.611 1067.67 401.649C1067.72 401.726 1067.8 401.839 1067.89 401.987C1068.08 402.283 1068.35 402.718 1068.7 403.273C1069.4 404.384 1070.38 405.978 1071.55 407.904C1073.88 411.758 1076.92 416.943 1079.77 422.274C1082.61 427.61 1085.25 433.073 1086.78 437.487C1087.55 439.698 1088.03 441.616 1088.13 443.108C1088.23 444.631 1087.93 445.545 1087.36 445.978C1087.1 446.172 1086.77 446.246 1086.32 446.162C1085.86 446.075 1085.29 445.822 1084.63 445.386C1083.31 444.514 1081.72 442.996 1079.96 441.002C1076.44 437.022 1072.32 431.259 1068.38 425.327C1064.45 419.4 1060.72 413.322 1057.96 408.725C1056.59 406.427 1055.46 404.499 1054.67 403.146C1054.28 402.47 1053.97 401.938 1053.76 401.574C1053.66 401.393 1053.58 401.253 1053.52 401.159C1053.5 401.112 1053.48 401.076 1053.46 401.053C1053.46 401.041 1053.45 401.032 1053.45 401.026C1053.45 401.023 1053.45 401.021 1053.44 401.02V401.018C1053.44 401.019 1053.41 401.039 1053.01 401.265L1053.44 401.018L1053.3 400.765H951.157L950.594 400.493L950.477 401.139L950.968 401.229C950.489 401.141 950.476 401.139 950.476 401.14C950.476 401.14 950.476 401.142 950.476 401.143C950.475 401.145 950.474 401.148 950.474 401.152C950.472 401.161 950.47 401.174 950.467 401.191C950.461 401.226 950.452 401.277 950.439 401.345C950.415 401.48 950.379 401.682 950.333 401.945C950.241 402.472 950.107 403.25 949.94 404.249C949.608 406.248 949.146 409.138 948.624 412.703C947.581 419.835 946.303 429.673 945.363 440.495C944.424 451.317 943.823 463.131 944.135 474.214C944.447 485.289 945.672 495.669 948.403 503.604C951.125 511.512 956.371 522.063 962.777 533.827C969.187 545.598 976.775 558.615 984.189 571.459C991.607 584.307 998.852 596.983 1004.59 608.088C1010.33 619.207 1014.53 628.699 1015.89 635.194C1018.63 648.28 1021.53 670.549 1029.33 689.708C1037.15 708.877 1049.96 725.132 1072.63 725.959C1095.02 726.775 1111.78 724.396 1122.81 718.063C1128.33 714.89 1132.42 710.723 1135.05 705.475C1137.68 700.23 1138.84 693.938 1138.55 686.534C1138.41 682.774 1137.09 678.263 1134.97 673.258C1132.84 668.245 1129.89 662.701 1126.45 656.866C1119.57 645.198 1110.7 632.32 1102.47 620.143C1094.23 607.95 1086.65 596.473 1082.3 587.568C1080.13 583.109 1078.79 579.349 1078.56 576.494C1078.45 575.072 1078.61 573.912 1079.05 573.011C1079.48 572.122 1080.2 571.445 1081.28 571.007C1083.46 570.118 1085.96 570.431 1088.73 571.813C1091.51 573.198 1094.53 575.63 1097.68 578.876C1103.99 585.366 1110.77 595.009 1117.35 605.683C1130.5 627.021 1142.76 652.367 1148.62 664.533C1151.59 670.709 1157.85 677.926 1166.28 684.413C1174.71 690.906 1185.33 696.695 1197.07 699.993C1220.57 706.596 1248.5 703.199 1272.04 675.528V675.527C1283.91 661.561 1283.24 643.762 1275.57 624.211C1267.91 604.661 1253.21 583.227 1236.8 561.834C1228.59 551.133 1219.94 540.432 1211.53 529.974C1203.1 519.513 1194.91 509.297 1187.6 499.557C1180.29 489.816 1173.87 480.56 1168.99 472.025C1164.11 463.485 1160.79 455.697 1159.65 448.884C1155.05 421.292 1152.94 409.361 1151.98 404.327C1151.74 403.069 1151.57 402.237 1151.45 401.699C1151.39 401.431 1151.34 401.231 1151.3 401.086C1151.27 400.952 1151.23 400.836 1151.2 400.754C1151.19 400.731 1151.17 400.696 1151.15 400.658C1151.13 400.638 1151.07 400.534 1150.93 400.472C1150.85 400.434 1150.73 400.406 1150.6 400.437ZM798 400.834L797.964 400.869L797.857 400.972L797.824 401.114L798.269 401.219C797.868 401.125 797.828 401.116 797.824 401.115C797.824 401.116 797.824 401.117 797.823 401.118C797.823 401.12 797.822 401.124 797.821 401.128C797.819 401.136 797.816 401.149 797.812 401.166C797.805 401.2 797.792 401.249 797.777 401.315C797.747 401.448 797.703 401.644 797.646 401.901C797.531 402.416 797.365 403.174 797.159 404.149C796.748 406.101 796.18 408.925 795.548 412.417C794.284 419.402 792.768 429.065 791.757 439.773C790.746 450.48 790.239 462.243 790.998 473.426C791.733 484.253 793.658 494.569 797.484 502.863L797.86 503.66C805.994 520.484 822.878 535.344 840.402 548.086C849.172 554.463 858.122 560.322 866.243 565.64C874.371 570.962 881.657 575.733 887.126 579.948C892.531 584.114 897.515 590.976 901.978 599.322C906.436 607.661 910.353 617.442 913.642 627.406C920.221 647.34 924.266 667.95 925.106 679.107C925.541 684.87 928.34 689.314 932.67 692.449C936.987 695.575 942.813 697.395 949.327 697.979C962.353 699.146 978.277 695.384 990.814 686.969C997.099 682.759 1000.87 678.199 1002.82 673.319C1004.77 668.441 1004.86 663.296 1003.88 657.952C1002.91 652.615 1000.85 647.053 998.462 641.329C996.066 635.584 993.35 629.702 991.003 623.633C986.288 611.444 971.45 583.156 956.135 557.014C948.474 543.937 940.685 531.383 933.974 521.633C930.618 516.759 927.527 512.577 924.852 509.381C922.192 506.203 919.899 503.941 918.139 502.969C916.414 502.016 914.943 501.706 913.688 502.034C912.426 502.364 911.507 503.306 910.812 504.57C910.12 505.831 909.617 507.471 909.207 509.313C908.796 511.161 908.469 513.248 908.144 515.417C907.49 519.774 906.837 524.461 905.51 528.394C904.181 532.332 902.218 535.386 899.031 536.634C895.815 537.893 891.915 537.317 887.917 535.451C883.927 533.589 879.908 530.473 876.508 526.777C873.108 523.082 870.35 518.832 868.863 514.725C867.373 510.61 867.181 506.71 868.787 503.639C870.415 500.526 873.209 498.39 876.658 496.807C880.112 495.222 884.182 494.211 888.312 493.322C892.42 492.438 896.604 491.674 900.198 490.584C903.787 489.495 906.897 488.052 908.812 485.744C910.674 483.499 912.828 479.579 915.058 474.693C917.293 469.795 919.622 463.885 921.828 457.631C926.238 445.127 930.165 431.213 931.86 421.209V421.208C932.713 416.122 931.825 412.247 929.79 409.317C927.764 406.4 924.643 404.481 921.141 403.215C914.153 400.689 905.455 400.693 900.278 400.693C894.897 400.693 889.38 404 883.914 408.416C878.449 412.831 872.87 418.502 867.462 423.305C866.796 423.896 866.229 424.315 865.75 424.589C865.268 424.865 864.903 424.979 864.636 424.997C864.386 425.013 864.219 424.947 864.087 424.831C863.941 424.703 863.8 424.477 863.69 424.116C863.469 423.386 863.424 422.276 863.536 420.882C863.647 419.502 863.906 417.895 864.251 416.202C864.942 412.817 865.973 409.124 866.833 406.272C867.263 404.848 867.649 403.635 867.928 402.779C868.067 402.351 868.179 402.013 868.257 401.781C868.296 401.666 868.326 401.576 868.347 401.517L868.375 401.432C868.376 401.43 868.377 401.429 868.377 401.428V401.427L868.604 400.765H867.904L798.348 400.693H798.146L798 400.834ZM502.852 678.569C503.013 678.569 503.201 678.64 503.235 678.664C503.242 678.669 503.25 678.677 503.258 678.684C503.212 678.674 502.953 678.639 502.709 678.77C502.697 678.754 502.685 678.737 502.672 678.721C502.722 678.662 502.782 678.609 502.852 678.569ZM324.367 242.668C314.944 240.644 307.328 241.764 301.235 245.331C295.152 248.893 290.65 254.86 287.377 262.415C280.838 277.509 279.133 299.103 279.615 321.153C280.098 343.222 282.774 365.824 285.044 382.975C286.18 391.557 287.212 398.762 287.821 403.869C288.126 406.423 288.322 408.435 288.373 409.822C288.399 410.52 288.387 411.036 288.341 411.375C288.34 411.379 288.338 411.384 288.338 411.388C288.206 411.221 288.043 410.971 287.855 410.627C287.399 409.79 286.84 408.508 286.177 406.831C284.851 403.481 283.139 398.638 281.027 392.803C276.808 381.144 271.006 365.571 263.561 350.28C256.119 334.996 247.018 319.955 236.187 309.378C225.349 298.795 212.723 292.633 198.273 295.262C169.747 300.451 146.887 312.849 137.274 331.017C127.631 349.244 131.426 373.054 155.702 400.778C179.842 428.347 192.745 460.632 199.61 486.039C203.043 498.74 204.965 509.718 206.028 517.517C206.56 521.415 206.877 524.52 207.062 526.648C207.154 527.712 207.212 528.533 207.248 529.086C207.266 529.362 207.279 529.573 207.286 529.713C207.29 529.783 207.292 529.836 207.294 529.871C207.295 529.888 207.296 529.902 207.296 529.91C207.296 529.914 207.297 529.918 207.297 529.92V529.922L207.318 530.4H320.543L320.678 530.112L320.225 529.9L320.679 530.11C320.679 530.109 320.68 530.106 320.682 530.104C320.684 530.098 320.688 530.09 320.692 530.08C320.702 530.059 320.718 530.026 320.737 529.983C320.777 529.899 320.836 529.772 320.914 529.604C321.07 529.27 321.301 528.772 321.603 528.122C322.205 526.821 323.088 524.908 324.21 522.458C326.453 517.558 329.651 510.51 333.47 501.92C341.107 484.739 351.229 461.385 361.165 436.691C371.101 411.999 380.854 385.96 387.753 363.412C391.202 352.139 393.94 341.729 395.63 332.793C397.318 323.868 397.969 316.368 397.214 310.935C396.33 304.57 397.171 291.492 388.689 278.063C380.32 264.812 362.934 251.255 326.134 243.055L324.367 242.668ZM527.635 263.142C515.345 254.847 499.751 252.763 484.022 255.085C468.292 257.407 452.383 264.141 439.413 273.545C426.448 282.945 416.378 295.046 412.391 308.127C397.097 358.302 392.814 387.122 386.299 414.561L385.661 417.212C382.204 431.314 370.79 459.406 360.219 484.014C354.937 496.308 349.872 507.719 346.127 516.057C344.255 520.225 342.712 523.625 341.638 525.982C341.101 527.161 340.68 528.08 340.395 528.703C340.252 529.015 340.143 529.253 340.069 529.413C340.033 529.493 340.005 529.554 339.986 529.595C339.977 529.615 339.969 529.63 339.965 529.64C339.963 529.644 339.961 529.649 339.96 529.651C339.959 529.652 339.958 529.654 339.958 529.654C339.961 529.656 339.995 529.672 340.412 529.864L339.958 529.655L339.631 530.364H533.233L532.771 529.604L532.771 529.603C532.77 529.601 532.768 529.599 532.767 529.597C532.763 529.591 532.758 529.584 532.752 529.573C532.739 529.552 532.719 529.518 532.693 529.476C532.642 529.39 532.565 529.261 532.465 529.093C532.265 528.755 531.971 528.252 531.599 527.604C530.853 526.305 529.79 524.415 528.525 522.049C525.996 517.315 522.658 510.68 519.426 503.074C512.951 487.838 506.943 468.798 508.616 453.348C509.448 445.671 513.098 438.333 518.02 430.214C522.923 422.124 529.103 413.236 534.849 402.588C546.37 381.235 556.235 352.664 551.341 308.183L551.229 307.169L551.188 307.209C548.579 285.483 539.751 271.319 527.635 263.142ZM446.183 377.645C446.455 377.674 446.777 377.854 447.14 378.303C447.502 378.75 447.862 379.414 448.212 380.291C448.911 382.043 449.528 384.544 450.064 387.59C451.137 393.675 451.871 401.835 452.327 410.3C452.783 418.761 452.961 427.512 452.924 434.77C452.887 442.043 452.633 447.779 452.236 450.234L452.195 450.492L452.227 450.522C451.79 452.847 450.338 455.558 448.23 458.319C446.055 461.17 443.218 464.03 440.203 466.513C437.187 468.996 434.008 471.088 431.151 472.414C429.723 473.077 428.387 473.543 427.202 473.774C426.013 474.006 425.006 473.995 424.216 473.742H424.217C424.032 473.683 423.759 473.413 423.534 472.605C423.321 471.838 423.195 470.742 423.161 469.343C423.094 466.55 423.391 462.661 423.977 458.036C425.146 448.792 427.453 436.678 430.213 424.651C432.973 412.625 436.182 400.7 439.155 391.836C440.643 387.401 442.065 383.749 443.336 381.236C443.973 379.977 444.56 379.029 445.083 378.414C445.344 378.107 445.575 377.901 445.771 377.779C445.965 377.658 446.098 377.636 446.183 377.645ZM1155.73 208.697C1144.46 205.69 1129.92 207.055 1116.49 208.471C1102.98 209.896 1086.56 214.964 1074.73 224.255C1068.81 228.904 1064.02 234.624 1061.34 241.487C1058.65 248.357 1058.07 256.341 1060.53 265.488C1065.37 283.514 1065.37 303.399 1064.16 318.798C1063.55 326.493 1062.64 333.059 1061.88 337.7C1061.51 340.02 1061.16 341.859 1060.92 343.117C1060.8 343.746 1060.7 344.23 1060.63 344.556C1060.59 344.718 1060.57 344.842 1060.55 344.925C1060.54 344.966 1060.53 344.997 1060.53 345.018C1060.53 345.028 1060.53 345.036 1060.52 345.041C1060.52 345.043 1060.52 345.046 1060.52 345.047L1060.52 345.048L1060.46 345.322L1060.66 345.517L1060.7 345.552L1060.85 345.692H1147.11L1146.94 345.065L1146.94 345.062C1146.94 345.06 1146.94 345.057 1146.94 345.052C1146.94 345.042 1146.93 345.025 1146.93 345.004C1146.92 344.961 1146.9 344.897 1146.88 344.812C1146.84 344.639 1146.78 344.381 1146.71 344.039C1146.56 343.355 1146.36 342.337 1146.15 341.01C1145.73 338.355 1145.26 334.461 1145.07 329.52C1144.68 319.636 1145.4 305.562 1149.84 288.823C1152.94 277.122 1159.4 271.837 1165.15 265.39C1168.02 262.168 1170.69 258.665 1172.6 253.951C1174.51 249.237 1175.65 243.342 1175.48 235.344C1175.31 227.317 1173.24 221.402 1169.74 217.11C1166.25 212.821 1161.38 210.205 1155.73 208.697ZM881.314 245.903C860.111 242.768 834.474 248.987 817.88 266.397C801.315 283.777 796.303 303.505 795.431 318.875C794.995 326.559 795.593 333.159 796.301 337.838C796.655 340.177 797.036 342.038 797.329 343.316C797.476 343.955 797.601 344.449 797.689 344.784C797.734 344.951 797.769 345.079 797.793 345.165C797.805 345.208 797.815 345.241 797.821 345.264C797.824 345.275 797.826 345.284 797.828 345.29C797.829 345.293 797.83 345.295 797.83 345.297L797.831 345.299C797.833 345.299 797.858 345.29 798.274 345.167V345.657H871.667L871.552 345.062L871.551 345.061C871.551 345.059 871.55 345.057 871.55 345.054C871.549 345.047 871.546 345.036 871.544 345.022C871.539 344.995 871.531 344.952 871.521 344.896C871.502 344.784 871.474 344.616 871.44 344.397C871.373 343.961 871.285 343.321 871.199 342.514C871.028 340.899 870.868 338.616 870.918 335.954C871.018 330.623 871.957 323.807 875.279 317.771C876.849 314.919 880.032 313.682 884.202 312.885C886.276 312.488 888.542 312.208 890.921 311.874C893.29 311.541 895.759 311.158 898.196 310.554C903.074 309.345 907.866 307.248 911.571 302.886C915.275 298.524 917.841 291.958 918.396 281.913C918.955 271.775 914.989 263.539 908.219 257.457C901.46 251.386 891.92 247.472 881.314 245.903ZM994.016 222.249C983.642 220.985 973.016 222.43 964.355 226.425C955.693 230.421 948.966 236.986 946.485 245.967C944.041 254.818 943.631 261.49 944.426 266.868C945.221 272.252 947.217 276.305 949.523 279.92C954.152 287.174 959.87 292.525 960.159 303.427C960.452 314.484 959.848 324.9 959.17 332.553C958.831 336.378 958.474 339.513 958.201 341.689C958.065 342.777 957.95 343.627 957.869 344.203C957.829 344.491 957.797 344.711 957.775 344.858C957.765 344.932 957.756 344.988 957.75 345.025C957.747 345.044 957.746 345.058 957.744 345.067C957.744 345.071 957.743 345.075 957.742 345.077V345.08L958.199 345.15V345.656H1044.1L1043.64 344.896L1043.64 344.896C1043.63 344.894 1043.63 344.892 1043.63 344.89C1043.63 344.884 1043.62 344.876 1043.62 344.864C1043.6 344.841 1043.58 344.807 1043.56 344.761C1043.5 344.669 1043.42 344.53 1043.32 344.35C1043.12 343.988 1042.82 343.453 1042.47 342.77C1041.77 341.401 1040.83 339.432 1039.89 337.039C1038.02 332.247 1036.15 325.777 1036.15 319.019C1036.15 305.395 1037.87 314.848 1035.74 263.954C1034.67 238.184 1014.76 224.777 994.016 222.249Z" fill="#DB3A00"/>
</svg>
