<svg width="1509" height="828" viewBox="0 0 1509 828" fill="none" xmlns="http://www.w3.org/2000/svg">
<path d="M76.1457 440.695C76.1457 440.695 71.2138 339.357 -1.06663 263.801C-73.3471 188.246 -22.9316 134.887 62.0623 120.735C147.056 106.584 189.964 281.394 196.704 279.697C203.445 278.001 138.617 26.9573 250.024 48.8631C363.295 71.1081 355.513 123.885 358.198 141.575C367.076 200.071 243.996 440.695 243.996 440.695H76.1457Z" fill="#A92D00" fill-opacity="0.51"/>
<path d="M81.0776 518.335C84.9136 526.38 34.6077 650.788 -19.8629 689.607C-77.7311 730.899 -0.409096 792.69 79.7077 781.834C159.824 770.978 175.881 669.204 170.455 657.233C165.03 645.263 235.502 822.35 329.812 827.584C424.122 832.819 411.135 787.602 404.559 748.782C397.983 709.962 327.949 630.772 298.193 598.786C268.437 566.799 256.436 518.384 256.436 518.384H81.0776V518.335Z" fill="#A92D00" fill-opacity="0.51"/>
<path d="M286.247 518.334C286.247 518.334 330.141 568.592 361.486 632.322C392.832 696.052 432.178 738.604 432.178 738.604C432.178 738.604 469.112 793.077 549.503 777.375C629.949 761.672 514.925 642.596 516.733 644.486C518.542 646.376 457.769 577.557 465.003 570.772C472.236 563.987 491.525 573.147 505.28 593.647C519.035 614.148 568.573 702.546 590.219 720.769C611.865 738.991 628.579 750.574 638.662 750.574C648.745 750.574 675.652 764.193 715.326 711.609C755.001 659.025 672.09 583.518 641.073 568.446C610.057 553.374 591.589 518.286 591.589 518.286H286.302L286.247 518.334Z" fill="#A92D00" fill-opacity="0.51"/>
<path d="M590.164 435.268C584.904 437.012 575.423 398.677 577.067 331.748C578.711 264.819 608.961 257.695 646.06 143.611C699.873 19.0581 839.666 75.1795 873.203 95.2921C906.741 115.405 935.291 158.925 916.33 169.006C897.37 179.135 862.024 130.865 816.979 125.679C771.934 120.493 776.428 131.446 778.4 141.915C780.373 152.383 829.419 167.552 824.706 175.209C819.993 182.867 761.413 160.476 739.767 174.337C718.121 188.198 721.738 207.147 740.753 208.456C759.769 209.764 812.486 203.706 813.143 213.593C813.801 223.48 744.918 220.766 741.74 252.606C738.561 284.447 819.281 260.603 835.337 260.506C851.393 260.409 813.691 275.094 804.485 301.458C795.279 327.823 817.637 327.774 839.228 323.655C860.819 319.535 923.126 264.044 928.003 273.301C932.88 282.557 938.798 305.965 928.003 327.047C917.207 348.129 898.301 344.591 900.987 389.324C903.672 434.056 914.138 440.211 954.032 457.609C993.981 475.008 1015.24 480.145 1058.26 513.925C1101.28 547.704 1131.47 604.795 1108.46 635.957C1085.44 667.12 1085.44 667.12 1021.6 670.076C957.759 673.032 885.643 561.129 870.08 565.975C854.517 570.822 918.632 610.853 923.126 644.439C927.619 678.024 908.823 714.663 874.902 744.371C840.981 774.08 730.122 750.526 742.726 683.791C755.33 617.056 637.237 533.989 643.758 520.661C650.279 507.334 728.314 556.67 758.015 519.789C787.716 482.908 696.146 486.252 697.9 481.163C699.654 476.074 732.095 478.013 757.029 477.577C782.017 477.14 792.429 467.205 787.223 440.599C782.017 413.992 700.585 446.705 698.284 440.599C695.982 434.492 771.934 409.969 795.279 398.774C818.623 387.579 801.745 351.037 759.988 358.5C718.231 365.964 694.722 399.21 679.213 404.493C663.65 409.727 707.6 358.791 686.557 341.635C665.514 324.479 650.882 337.031 630.716 358.5C610.55 380.018 595.48 433.474 590.164 435.219V435.268Z" fill="#A92D00" fill-opacity="0.51"/>
<path d="M957.758 188.246C957.758 188.246 938.359 128.296 987.515 81.0919C1036.67 33.8879 1139.58 47.264 1136.29 101.786C1133.01 156.308 1082.1 133.724 1072.02 150.492C1061.93 167.261 1066.37 188.246 1066.37 188.246H957.704H957.758Z" fill="#A92D00" fill-opacity="0.51"/>
<path d="M1196.52 188.246C1196.52 188.246 1201.01 161.494 1200.14 131.204C1199.26 100.914 1165.17 101.011 1179.7 52.8857C1194.22 4.76089 1308.31 7.76567 1311.49 77.3116C1314.67 146.858 1312.09 133.821 1312.09 152.528C1312.09 171.235 1323.38 188.246 1323.38 188.246H1196.46H1196.52Z" fill="#A92D00" fill-opacity="0.51"/>
<path d="M1349.96 188.246C1349.96 188.246 1364.48 128.684 1349.96 79.2022C1335.44 29.7203 1392.7 6.0214 1432.87 2.14428C1473.04 -1.73285 1519.12 -5.22227 1520.11 38.2015C1521.1 81.6254 1491.23 78.7175 1481.86 111.092C1468.54 156.987 1477.53 188.295 1477.53 188.295H1350.01L1349.96 188.246Z" fill="#A92D00" fill-opacity="0.51"/>
<path d="M957.759 264.868C957.759 264.868 933.647 358.936 957.759 404.541C981.871 450.194 1058.04 485.428 1090.81 508.545C1123.58 531.662 1145.28 613.906 1147.8 644.535C1150.32 675.165 1207.59 677.588 1244.74 654.761C1281.9 631.983 1258.77 602.226 1244.74 569.028C1230.71 535.83 1156.24 414.573 1136.3 404.493C1116.35 394.412 1128.68 443.264 1108.4 450.534C1088.13 457.803 1052.18 422.231 1062.32 404.493C1072.45 386.755 1111.31 391.892 1122.16 379.921C1133.01 367.951 1151.37 319.293 1156.41 292.056C1161.39 264.819 1125.5 264.819 1109.99 264.819C1094.48 264.819 1077.77 282.315 1061.49 295.545C1045.22 308.776 1061.66 264.916 1061.66 264.916L957.814 264.819L957.759 264.868Z" fill="#A92D00" fill-opacity="0.51"/>
<path d="M1185.67 264.868C1185.67 264.868 1166.38 361.554 1182.55 404.541C1198.71 447.529 1275.1 548.528 1283.32 584.44C1291.54 620.352 1300.53 705.697 1367.33 707.927C1434.13 710.156 1466.68 694.89 1464.98 654.761C1463.28 614.633 1351.71 506.752 1379.93 496.235C1408.16 485.719 1463.94 591.128 1481.42 624.374C1498.9 657.621 1594.58 714.421 1664.45 639.253C1734.27 564.037 1510.25 405.511 1496.49 330.101C1482.74 254.691 1483.89 264.916 1483.89 264.916H1360.43C1360.43 264.916 1399.17 320.069 1389.74 326.563C1380.32 333.057 1338.01 264.916 1338.01 264.916H1185.78L1185.67 264.868Z" fill="#A92D00" fill-opacity="0.51"/>
<path d="M588.246 137.843C573.67 16.586 405.874 67.0855 382.31 137.843C358.746 208.601 352.718 248.196 342.416 286.87C332.059 325.544 274.136 440.647 274.136 440.647H560.682C560.682 440.647 519.473 378.613 524.514 336.013C529.556 293.413 602.878 259.052 588.301 137.795L588.246 137.843ZM441.877 331.99C439.521 345.657 409.765 367.757 399.024 364.606C388.338 361.456 421.218 230.943 432.123 231.96C443.028 233.026 444.233 318.275 441.822 331.942L441.877 331.99Z" fill="#A92D00" fill-opacity="0.51"/>
</svg>
